<svg xmlns="http://www.w3.org/2000/svg" fill="#fff" viewBox="0 0 50 50" width="50px" height="50px"><path d="M 25 3 C 23.35503 3 22 4.3550302 22 6 L 22 9 C 22 10.64497 23.35503 12 25 12 C 26.64497 12 28 10.64497 28 9 L 28 6 C 28 4.3550302 26.64497 3 25 3 z M 25 5 C 25.56503 5 26 5.4349698 26 6 L 26 9 C 26 9.5650302 25.56503 10 25 10 C 24.43497 10 24 9.5650302 24 9 L 24 6 C 24 5.4349698 24.43497 5 25 5 z M 16 12 C 14.35503 12 13 13.35503 13 15 L 13 24 C 13 25.64497 14.35503 27 16 27 C 17.64497 27 19 25.64497 19 24 L 19 15 C 19 13.35503 17.64497 12 16 12 z M 34 12 C 32.35503 12 31 13.35503 31 15 L 31 18 C 31 19.64497 32.35503 21 34 21 C 35.64497 21 37 19.64497 37 18 L 37 15 C 37 13.35503 35.64497 12 34 12 z M 16 14 C 16.56503 14 17 14.43497 17 15 L 17 24 C 17 24.56503 16.56503 25 16 25 C 15.43497 25 15 24.56503 15 24 L 15 15 C 15 14.43497 15.43497 14 16 14 z M 25 14 C 23.35503 14 22 15.35503 22 17 L 22 33 C 22 34.64497 23.35503 36 25 36 C 26.64497 36 28 34.64497 28 33 L 28 17 C 28 15.35503 26.64497 14 25 14 z M 34 14 C 34.56503 14 35 14.43497 35 15 L 35 18 C 35 18.56503 34.56503 19 34 19 C 33.43497 19 33 18.56503 33 18 L 33 15 C 33 14.43497 33.43497 14 34 14 z M 25 16 C 25.56503 16 26 16.43497 26 17 L 26 33 C 26 33.56503 25.56503 34 25 34 C 24.43497 34 24 33.56503 24 33 L 24 17 C 24 16.43497 24.43497 16 25 16 z M 7 20 C 5.3550302 20 4 21.35503 4 23 L 4 26 C 4 27.64497 5.3550302 29 7 29 C 8.6449698 29 10 27.64497 10 26 L 10 23 C 10 21.35503 8.6449698 20 7 20 z M 43 21 C 41.35503 21 40 22.35503 40 24 L 40 27 C 40 28.64497 41.35503 30 43 30 C 44.64497 30 46 28.64497 46 27 L 46 24 C 46 22.35503 44.64497 21 43 21 z M 7 22 C 7.5650302 22 8 22.43497 8 23 L 8 26 C 8 26.56503 7.5650302 27 7 27 C 6.4349698 27 6 26.56503 6 26 L 6 23 C 6 22.43497 6.4349698 22 7 22 z M 34 23 C 32.35503 23 31 24.35503 31 26 L 31 35 C 31 36.64497 32.35503 38 34 38 C 35.64497 38 37 36.64497 37 35 L 37 26 C 37 24.35503 35.64497 23 34 23 z M 43 23 C 43.56503 23 44 23.43497 44 24 L 44 27 C 44 27.56503 43.56503 28 43 28 C 42.43497 28 42 27.56503 42 27 L 42 24 C 42 23.43497 42.43497 23 43 23 z M 34 25 C 34.56503 25 35 25.43497 35 26 L 35 35 C 35 35.56503 34.56503 36 34 36 C 33.43497 36 33 35.56503 33 35 L 33 26 C 33 25.43497 33.43497 25 34 25 z M 16 29 C 14.35503 29 13 30.35503 13 32 L 13 35 C 13 36.64497 14.35503 38 16 38 C 17.64497 38 19 36.64497 19 35 L 19 32 C 19 30.35503 17.64497 29 16 29 z M 16 31 C 16.56503 31 17 31.43497 17 32 L 17 35 C 17 35.56503 16.56503 36 16 36 C 15.43497 36 15 35.56503 15 35 L 15 32 C 15 31.43497 15.43497 31 16 31 z M 25 38 C 23.35503 38 22 39.35503 22 41 L 22 44 C 22 45.64497 23.35503 47 25 47 C 26.64497 47 28 45.64497 28 44 L 28 41 C 28 39.35503 26.64497 38 25 38 z M 25 40 C 25.56503 40 26 40.43497 26 41 L 26 44 C 26 44.56503 25.56503 45 25 45 C 24.43497 45 24 44.56503 24 44 L 24 41 C 24 40.43497 24.43497 40 25 40 z"/></svg>